<svg width="418" height="338" viewBox="0 0 418 338" fill="none" xmlns="http://www.w3.org/2000/svg">
<path d="M174.378 0.643261C138.378 4.77659 96.9117 26.6432 60.1116 61.0432C51.1783 69.4432 49.445 73.9766 54.245 76.6432C58.3783 78.7766 59.3116 78.3766 68.1116 70.2432C101.178 39.4432 134.912 20.5099 168.645 13.9766C173.178 13.0433 182.912 12.5099 190.645 12.9099C202.378 13.3099 205.578 13.8433 211.978 17.0433C219.045 20.5099 231.712 32.3766 231.712 35.5766C231.712 36.2433 229.712 36.3766 227.045 35.8433C221.445 34.9099 218.378 36.9099 218.378 41.4433C218.378 43.9766 219.578 45.1766 223.445 46.7766C226.112 47.9766 233.978 51.5766 240.645 54.9099C254.512 61.4433 259.712 67.0432 259.712 75.3099C259.712 87.4432 243.978 97.3099 236.112 90.2432C234.645 89.0432 230.245 83.8432 226.245 78.7766C222.378 73.7099 214.778 66.1099 209.312 61.8432C200.512 54.6432 182.778 44.9099 178.245 44.5099C174.778 44.1099 188.378 42.1099 194.512 42.1099C201.712 41.9766 204.378 39.5766 203.178 34.6433C202.112 30.3766 198.112 29.4433 184.778 30.5099C148.912 33.4433 116.512 48.3766 82.245 77.4432C75.845 82.7766 67.045 91.1766 62.645 96.1099C55.445 103.977 53.3116 105.31 44.1116 108.643C38.3783 110.643 32.645 112.777 31.3116 113.31C27.3116 115.043 28.9116 112.243 37.7116 101.977C42.7783 96.1099 46.3783 90.7766 46.3783 88.9099C46.3783 85.4432 41.045 82.3766 37.9783 84.1099C32.3783 87.3099 1.71164 127.443 0.244977 133.577C-0.82169 137.31 1.71164 140.643 5.57831 140.643C7.04498 140.643 11.045 138.777 14.3783 136.51C28.3783 127.043 47.7116 118.91 63.445 115.843C75.045 113.577 91.3117 113.443 96.645 115.443C106.245 119.043 109.312 127.443 102.912 132.51C97.445 136.777 91.3117 137.31 78.5116 134.51C72.245 133.177 62.5116 131.977 57.045 132.11C38.7783 132.243 23.845 141.843 16.1116 158.643C12.9116 165.577 12.3783 168.377 12.3783 178.643C12.3783 189.043 12.9116 191.71 16.1116 198.643C18.245 203.043 21.445 208.243 23.3116 210.243L26.645 213.71L22.9116 222.91C17.845 235.043 17.5783 253.71 21.9783 267.977C27.3116 284.777 45.5783 311.31 51.7116 311.31C54.9116 311.31 58.3783 306.377 57.3116 303.443C56.9116 302.243 53.9783 298.377 50.9116 294.777C36.7783 278.51 28.3783 253.977 31.445 237.843C37.045 207.71 60.3783 191.443 95.7117 193.043C123.978 194.243 146.512 207.577 139.178 218.643C136.112 223.177 132.512 222.777 125.978 217.31C119.978 212.11 116.378 211.71 113.445 216.11C111.712 218.777 111.978 219.443 117.045 225.177C121.578 230.51 122.378 232.377 122.378 237.577C122.378 242.643 121.712 244.243 117.845 248.11C111.312 254.643 107.978 254.11 97.445 244.51C87.7117 235.71 79.1783 232.11 67.7116 231.977C55.7116 231.977 49.1783 235.31 45.045 243.443C40.645 252.11 42.1116 257.977 48.645 257.977C50.9116 257.977 52.3783 256.51 54.3783 252.11C60.245 239.843 73.9783 240.643 89.845 254.11C94.1117 257.843 99.5783 261.71 101.978 262.777C110.912 266.643 120.378 264.11 127.712 255.71L131.712 251.177L139.712 258.377C170.912 286.643 223.712 311.71 281.445 325.843C301.312 330.777 303.178 330.777 305.045 327.31C307.578 322.51 305.445 319.443 297.978 317.443C294.112 316.51 283.578 313.71 274.378 311.31C229.712 299.71 183.712 278.243 156.245 256.11C145.712 247.71 135.712 237.71 135.712 235.577C135.712 235.043 137.845 233.71 140.378 232.91C146.112 230.777 151.312 224.643 152.512 218.51C156.245 198.243 128.378 180.643 92.645 180.643C71.1783 180.643 53.5783 186.51 39.445 198.11L33.3116 203.31L30.5116 199.843C27.3116 195.71 23.7116 184.643 23.7116 178.643C23.7116 166.11 32.3783 151.977 43.045 147.177C49.7116 144.11 65.045 143.843 76.3783 146.643C100.512 152.377 118.378 143.71 118.378 125.977C118.378 119.177 115.845 114.243 109.845 108.91C104.112 103.843 96.7783 101.71 84.7783 101.577C79.845 101.443 75.7116 101.043 75.7116 100.643C75.7116 98.2432 97.7117 79.7099 111.712 70.3766C133.045 56.1099 139.178 53.7099 155.045 53.8433C166.512 53.8433 175.178 55.8432 184.378 60.3766C191.978 64.1099 205.845 73.7099 209.312 77.5766C211.578 80.1099 211.445 80.2432 203.978 82.5099C193.178 85.9766 189.445 88.1099 181.578 95.5766C173.578 103.177 168.245 113.977 166.112 126.777C159.578 166.377 198.778 212.643 272.112 251.843C300.645 267.043 342.912 283.177 373.978 290.777C389.045 294.377 408.112 297.977 412.645 297.977C416.112 297.977 418.912 293.577 417.712 289.977C416.778 287.043 414.778 286.51 391.845 282.11C339.845 271.977 279.312 246.11 235.045 214.777C219.045 203.443 195.445 180.11 189.178 169.71C181.312 156.11 177.978 146.243 177.978 135.977C177.845 123.977 181.045 114.51 187.978 106.643C194.245 99.5766 199.845 96.3766 211.712 93.3099L220.245 91.0432L224.245 95.7099C230.645 102.91 234.778 105.043 243.178 104.91C253.312 104.777 261.445 99.8432 267.445 89.9766C276.112 75.4432 271.712 59.4433 255.978 49.0433C249.445 44.7766 247.845 42.9099 245.712 37.3099C236.112 10.5099 209.312 -3.22341 174.378 0.643261Z" fill="#457B9D"/>
<path d="M260.512 3.97661C260.112 5.17661 259.712 7.30994 259.712 8.77661C259.712 10.2433 258.512 11.5766 256.378 12.1099C249.445 13.8433 249.445 17.9766 256.378 20.2433C259.712 21.3099 260.512 22.3766 260.778 26.3766C261.312 31.7099 263.712 34.3766 266.912 33.1766C268.912 32.3766 269.045 31.1766 268.378 25.8433L267.445 19.3099H271.578C275.045 19.3099 275.712 18.7766 275.712 16.1099C275.712 13.7099 274.645 12.5099 271.845 11.5766C268.912 10.5099 267.845 9.17661 267.445 6.37661C267.045 2.10994 261.978 0.376609 260.512 3.97661Z" fill="#457B9D"/>
<path d="M157.712 77.0433C147.978 87.1766 141.845 98.3766 138.378 112.11C133.712 130.377 135.312 141.977 142.645 141.977C146.112 141.977 147.312 139.043 148.245 128.243C149.978 108.91 156.378 95.0433 169.578 81.9766C175.845 75.9766 176.912 73.0433 174.112 70.2433C170.512 66.6433 165.845 68.51 157.712 77.0433Z" fill="#457B9D"/>
<path d="M222.645 123.577C221.845 124.377 221.045 126.777 221.045 128.777C221.045 132.243 220.512 132.51 215.445 132.91C210.378 133.31 209.712 133.71 209.712 136.643C209.712 139.443 210.645 140.243 214.778 141.177C218.912 142.243 219.712 143.043 219.712 146.11C219.712 153.177 227.045 154.377 228.512 147.443C229.845 141.31 230.245 140.643 232.912 140.643C235.578 140.643 237.845 136.377 236.378 133.977C235.978 133.31 234.112 132.643 232.378 132.643C229.712 132.643 229.178 131.843 228.778 127.71C228.378 122.377 225.712 120.51 222.645 123.577Z" fill="#457B9D"/>
<path d="M141.578 157.177C139.978 163.577 144.645 172.643 149.578 172.643C154.778 172.643 156.378 169.443 154.378 162.91C152.245 155.577 150.778 153.977 146.245 153.977C143.312 153.977 142.245 154.777 141.578 157.177Z" fill="#457B9D"/>
<path d="M70.1116 260.777C63.9783 264.243 70.2449 275.443 88.6449 293.577C101.045 305.977 105.045 308.11 108.778 304.377C112.112 301.043 110.245 297.31 101.045 288.91C95.9783 284.243 89.0449 276.777 85.5783 272.243C79.3116 263.977 74.9116 259.31 73.1783 259.31C72.7783 259.31 71.3116 259.977 70.1116 260.777Z" fill="#457B9D"/>
<path d="M123.445 310.11C119.178 312.51 120.512 317.577 126.378 321.31C137.845 328.51 143.712 328.243 143.712 320.643C143.712 317.177 142.778 316.243 135.712 312.643C126.912 308.243 126.645 308.11 123.445 310.11Z" fill="#457B9D"/>
<path d="M323.178 326.11C319.845 330.91 322.912 334.243 332.512 336.243C339.045 337.577 340.912 337.443 343.445 335.843C350.378 331.31 345.312 325.443 332.778 323.977C325.978 323.177 325.178 323.443 323.178 326.11Z" fill="#457B9D"/>
</svg>
